<mxfile host="app.diagrams.net" modified="2022-07-03T17:02:15.729Z" agent="5.0 (Windows)" etag="y-X--s23M8akEuzeEz2R" version="20.0.4" type="github">
  <diagram id="LRADa61S30Qln42eqijP" name="Page-1">
    <mxGraphModel dx="782" dy="392" grid="1" gridSize="10" guides="1" tooltips="1" connect="1" arrows="1" fold="1" page="1" pageScale="1" pageWidth="827" pageHeight="1169" math="0" shadow="0">
      <root>
        <mxCell id="0" />
        <mxCell id="1" parent="0" />
        <mxCell id="pB7DixAc1fN-xtGuA9iD-1" value="&lt;div&gt;Команда&lt;/div&gt;" style="shape=umlActor;verticalLabelPosition=bottom;verticalAlign=top;html=1;outlineConnect=0;" vertex="1" parent="1">
          <mxGeometry x="100" y="150" width="30" height="60" as="geometry" />
        </mxCell>
        <mxCell id="pB7DixAc1fN-xtGuA9iD-4" value="" style="endArrow=none;dashed=1;html=1;rounded=0;" edge="1" parent="1">
          <mxGeometry width="50" height="50" relative="1" as="geometry">
            <mxPoint x="150" y="180" as="sourcePoint" />
            <mxPoint x="300" y="120" as="targetPoint" />
          </mxGeometry>
        </mxCell>
      </root>
    </mxGraphModel>
  </diagram>
</mxfile>
